# xmcd
#
# Track frame offsets:
#	150
#	12852
#	26282
#	37800
#	48947
#	60880
#	77657
#	89725
#	101285
#	113422
#	122585
#	134357
#
# Disc length: 1999 seconds
#
# Revision: 3
# Processed by: cddbd v1.5.2PL0 Copyright (c) Steve Scherf et al.
# Submitted via: audiograbber 1.83.01
#
DISCID=7f07cd0c
DTITLE=Ricky Barnes and The Hootowls - Ya' Finally Said Somethin' Good!
DYEAR=1991
DGENRE=Country
TTITLE0=Ya' Finally Said Somethin' Good
TTITLE1=Once A Day
TTITLE2=I Take The Chance
TTITLE3=The House At Four 'O' Thirty Three
TTITLE4=Every Fool Has A Rainbow
TTITLE5=How's Your City Life Now
TTITLE6=Baby You Can't Know
TTITLE7=How Much I've Lied
TTITLE8=Eight Wonder Of The World
TTITLE9=Brand New Heartache
TTITLE10=Lonely Blue Boy
TTITLE11=The Runnin' Kind
EXTD=
EXTT0=
EXTT1=
EXTT2=
EXTT3=
EXTT4=
EXTT5=
EXTT6=
EXTT7=
EXTT8=
EXTT9=
EXTT10=
EXTT11=
PLAYORDER=
